<svg xmlns="http://www.w3.org/2000/svg" xmlns:xlink="http://www.w3.org/1999/xlink" width="120" zoomAndPan="magnify" viewBox="0 0 90 44.999999" height="60" preserveAspectRatio="xMidYMid meet" version="1.0"><defs><g/><clipPath id="ea472e0841"><path d="M 8 12 L 30.75 12 L 30.75 16 L 8 16 Z M 8 12 " clip-rule="nonzero"/></clipPath><clipPath id="8ff706c949"><path d="M 21 30 L 28 30 L 28 36.304688 L 21 36.304688 Z M 21 30 " clip-rule="nonzero"/></clipPath><clipPath id="2b68af1278"><path d="M 9 30 L 16 30 L 16 36.304688 L 9 36.304688 Z M 9 30 " clip-rule="nonzero"/></clipPath><clipPath id="08f1e8a7aa"><path d="M 0.152344 8.554688 L 30.75 8.554688 L 30.75 26 L 0.152344 26 Z M 0.152344 8.554688 " clip-rule="nonzero"/></clipPath></defs><g fill="#597cff" fill-opacity="0.302"><g transform="translate(37.78154, 28.133779)"><g><path d="M 0.28125 0 L 0.28125 -4.203125 C 0.488281 -4.128906 0.84375 -4.019531 1.34375 -3.875 C 1.851562 -3.738281 2.4375 -3.59375 3.09375 -3.4375 C 3.757812 -3.289062 4.4375 -3.164062 5.125 -3.0625 C 5.8125 -2.96875 6.429688 -2.921875 6.984375 -2.921875 C 7.078125 -2.921875 7.21875 -2.925781 7.40625 -2.9375 C 7.601562 -2.945312 7.800781 -2.972656 8 -3.015625 C 8.207031 -3.066406 8.378906 -3.132812 8.515625 -3.21875 C 8.660156 -3.3125 8.734375 -3.4375 8.734375 -3.59375 C 8.734375 -3.75 8.582031 -3.878906 8.28125 -3.984375 C 7.988281 -4.097656 7.59375 -4.207031 7.09375 -4.3125 C 6.59375 -4.425781 6.046875 -4.554688 5.453125 -4.703125 C 4.867188 -4.847656 4.28125 -5.039062 3.6875 -5.28125 C 3.09375 -5.519531 2.546875 -5.820312 2.046875 -6.1875 C 1.554688 -6.5625 1.160156 -7.03125 0.859375 -7.59375 C 0.554688 -8.15625 0.40625 -8.832031 0.40625 -9.625 C 0.40625 -10.207031 0.523438 -10.695312 0.765625 -11.09375 C 1.015625 -11.5 1.335938 -11.828125 1.734375 -12.078125 C 2.140625 -12.328125 2.585938 -12.515625 3.078125 -12.640625 C 3.566406 -12.773438 4.066406 -12.867188 4.578125 -12.921875 C 5.085938 -12.972656 5.5625 -13 6 -13 C 6.457031 -13 6.945312 -12.972656 7.46875 -12.921875 C 7.988281 -12.878906 8.390625 -12.835938 8.671875 -12.796875 L 8.671875 -8.515625 C 8.441406 -8.710938 8.148438 -8.914062 7.796875 -9.125 C 7.441406 -9.332031 7.003906 -9.503906 6.484375 -9.640625 C 5.972656 -9.785156 5.367188 -9.859375 4.671875 -9.859375 C 4.085938 -9.859375 3.535156 -9.765625 3.015625 -9.578125 C 2.492188 -9.398438 2.066406 -9.171875 1.734375 -8.890625 C 1.398438 -8.617188 1.234375 -8.34375 1.234375 -8.0625 C 1.234375 -7.851562 1.300781 -7.695312 1.4375 -7.59375 C 1.582031 -7.5 1.75 -7.429688 1.9375 -7.390625 C 2.132812 -7.359375 2.316406 -7.34375 2.484375 -7.34375 C 2.941406 -7.34375 3.472656 -7.390625 4.078125 -7.484375 C 4.679688 -7.578125 5.285156 -7.625 5.890625 -7.625 C 6.328125 -7.625 6.75 -7.570312 7.15625 -7.46875 C 7.570312 -7.375 7.9375 -7.203125 8.25 -6.953125 C 8.570312 -6.703125 8.828125 -6.34375 9.015625 -5.875 C 9.203125 -5.414062 9.296875 -4.820312 9.296875 -4.09375 C 9.296875 -3.300781 9.140625 -2.628906 8.828125 -2.078125 C 8.515625 -1.523438 8.109375 -1.078125 7.609375 -0.734375 C 7.109375 -0.398438 6.566406 -0.160156 5.984375 -0.015625 C 5.410156 0.128906 4.859375 0.203125 4.328125 0.203125 C 4.078125 0.203125 3.765625 0.195312 3.390625 0.1875 C 3.023438 0.175781 2.644531 0.160156 2.25 0.140625 C 1.851562 0.128906 1.484375 0.109375 1.140625 0.078125 C 0.796875 0.0546875 0.507812 0.03125 0.28125 0 Z M 0.28125 0 "/></g></g></g><g fill="#597cff" fill-opacity="0.302"><g transform="translate(47.367449, 28.133779)"><g><path d="M 2.765625 0 C 2.523438 -0.46875 2.359375 -0.914062 2.265625 -1.34375 C 2.171875 -1.769531 2.125 -2.1875 2.125 -2.59375 C 2.125 -3.3125 2.238281 -3.976562 2.46875 -4.59375 C 2.695312 -5.21875 2.960938 -5.789062 3.265625 -6.3125 C 3.566406 -6.84375 3.832031 -7.316406 4.0625 -7.734375 C 4.289062 -8.160156 4.40625 -8.53125 4.40625 -8.84375 C 4.40625 -9.132812 4.289062 -9.351562 4.0625 -9.5 C 3.832031 -9.644531 3.582031 -9.71875 3.3125 -9.71875 C 2.957031 -9.71875 2.570312 -9.640625 2.15625 -9.484375 C 1.75 -9.335938 1.359375 -9.171875 0.984375 -8.984375 C 0.617188 -8.796875 0.316406 -8.648438 0.078125 -8.546875 L 0.078125 -12.796875 L 9.734375 -12.796875 L 9.734375 -8.546875 C 9.648438 -8.617188 9.5 -8.722656 9.28125 -8.859375 C 9.0625 -9.003906 8.804688 -9.144531 8.515625 -9.28125 C 8.222656 -9.425781 7.914062 -9.550781 7.59375 -9.65625 C 7.28125 -9.757812 6.976562 -9.8125 6.6875 -9.8125 C 6.3125 -9.8125 6.019531 -9.726562 5.8125 -9.5625 C 5.601562 -9.40625 5.445312 -9.195312 5.34375 -8.9375 C 5.238281 -8.6875 5.175781 -8.414062 5.15625 -8.125 C 5.132812 -7.832031 5.125 -7.550781 5.125 -7.28125 C 5.125 -6.40625 5.242188 -5.550781 5.484375 -4.71875 C 5.734375 -3.894531 6.0625 -3.085938 6.46875 -2.296875 C 6.875 -1.515625 7.304688 -0.75 7.765625 0 Z M 2.765625 0 "/></g></g></g><g fill="#597cff" fill-opacity="0.302"><g transform="translate(57.190886, 28.133779)"><g><path d="M 5.6875 0.203125 C 4.78125 0.203125 3.988281 0.015625 3.3125 -0.359375 C 2.632812 -0.734375 2.070312 -1.234375 1.625 -1.859375 C 1.175781 -2.492188 0.835938 -3.203125 0.609375 -3.984375 C 0.378906 -4.765625 0.265625 -5.566406 0.265625 -6.390625 C 0.265625 -7.222656 0.378906 -8.03125 0.609375 -8.8125 C 0.835938 -9.601562 1.175781 -10.3125 1.625 -10.9375 C 2.070312 -11.5625 2.632812 -12.0625 3.3125 -12.4375 C 3.988281 -12.8125 4.78125 -13 5.6875 -13 C 6.59375 -13 7.382812 -12.8125 8.0625 -12.4375 C 8.738281 -12.0625 9.300781 -11.5625 9.75 -10.9375 C 10.207031 -10.3125 10.546875 -9.601562 10.765625 -8.8125 C 10.992188 -8.03125 11.109375 -7.222656 11.109375 -6.390625 C 11.109375 -5.566406 10.992188 -4.765625 10.765625 -3.984375 C 10.546875 -3.203125 10.207031 -2.492188 9.75 -1.859375 C 9.300781 -1.234375 8.738281 -0.734375 8.0625 -0.359375 C 7.382812 0.015625 6.59375 0.203125 5.6875 0.203125 Z M 8.859375 -9.796875 C 8.492188 -9.796875 8.050781 -9.703125 7.53125 -9.515625 C 7.019531 -9.335938 6.484375 -9.09375 5.921875 -8.78125 C 5.359375 -8.46875 4.800781 -8.113281 4.25 -7.71875 C 3.707031 -7.320312 3.21875 -6.90625 2.78125 -6.46875 C 2.34375 -6.03125 1.988281 -5.597656 1.71875 -5.171875 C 1.457031 -4.742188 1.328125 -4.34375 1.328125 -3.96875 C 1.328125 -3.613281 1.441406 -3.363281 1.671875 -3.21875 C 1.910156 -3.070312 2.191406 -3 2.515625 -3 C 2.890625 -3 3.328125 -3.085938 3.828125 -3.265625 C 4.335938 -3.453125 4.875 -3.703125 5.4375 -4.015625 C 6.007812 -4.328125 6.566406 -4.679688 7.109375 -5.078125 C 7.648438 -5.472656 8.144531 -5.882812 8.59375 -6.3125 C 9.039062 -6.75 9.394531 -7.1875 9.65625 -7.625 C 9.925781 -8.0625 10.0625 -8.46875 10.0625 -8.84375 C 10.0625 -9.1875 9.9375 -9.429688 9.6875 -9.578125 C 9.445312 -9.722656 9.171875 -9.796875 8.859375 -9.796875 Z M 8.859375 -9.796875 "/></g></g></g><g fill="#597cff" fill-opacity="0.302"><g transform="translate(68.558248, 28.133779)"><g><path d="M 0.34375 0 C 0.695312 -0.976562 0.976562 -2.035156 1.1875 -3.171875 C 1.394531 -4.316406 1.5 -5.472656 1.5 -6.640625 C 1.5 -7.691406 1.40625 -8.738281 1.21875 -9.78125 C 1.03125 -10.832031 0.738281 -11.835938 0.34375 -12.796875 C 0.625 -12.835938 0.957031 -12.875 1.34375 -12.90625 C 1.738281 -12.9375 2.144531 -12.957031 2.5625 -12.96875 C 2.988281 -12.988281 3.378906 -13 3.734375 -13 C 4.523438 -13 5.300781 -12.945312 6.0625 -12.84375 C 6.832031 -12.738281 7.523438 -12.5625 8.140625 -12.3125 C 8.753906 -12.070312 9.242188 -11.722656 9.609375 -11.265625 C 9.984375 -10.816406 10.171875 -10.234375 10.171875 -9.515625 C 10.171875 -8.859375 9.992188 -8.253906 9.640625 -7.703125 C 9.285156 -7.160156 8.765625 -6.707031 8.078125 -6.34375 C 7.398438 -5.976562 6.546875 -5.753906 5.515625 -5.671875 C 5.640625 -5.273438 5.878906 -4.960938 6.234375 -4.734375 C 6.585938 -4.515625 7.003906 -4.363281 7.484375 -4.28125 C 7.960938 -4.195312 8.4375 -4.15625 8.90625 -4.15625 C 9.132812 -4.15625 9.351562 -4.160156 9.5625 -4.171875 C 9.769531 -4.191406 9.960938 -4.207031 10.140625 -4.21875 L 10.140625 0 C 9.722656 0.113281 9.332031 0.171875 8.96875 0.171875 C 8.40625 0.171875 7.929688 0.046875 7.546875 -0.203125 C 7.171875 -0.460938 6.847656 -0.789062 6.578125 -1.1875 C 6.304688 -1.582031 6.054688 -2.003906 5.828125 -2.453125 C 5.609375 -2.898438 5.367188 -3.320312 5.109375 -3.71875 C 4.847656 -4.113281 4.53125 -4.4375 4.15625 -4.6875 C 3.789062 -4.945312 3.335938 -5.078125 2.796875 -5.078125 C 2.796875 -4.035156 2.929688 -3.09375 3.203125 -2.25 C 3.484375 -1.40625 3.921875 -0.65625 4.515625 0 Z M 7.921875 -9.796875 C 7.671875 -9.796875 7.363281 -9.71875 7 -9.5625 C 6.632812 -9.414062 6.253906 -9.222656 5.859375 -8.984375 C 5.460938 -8.753906 5.085938 -8.488281 4.734375 -8.1875 C 4.378906 -7.894531 4.09375 -7.601562 3.875 -7.3125 C 3.65625 -7.019531 3.546875 -6.75 3.546875 -6.5 C 3.546875 -6.15625 3.765625 -5.984375 4.203125 -5.984375 C 4.453125 -5.984375 4.757812 -6.054688 5.125 -6.203125 C 5.488281 -6.359375 5.867188 -6.550781 6.265625 -6.78125 C 6.671875 -7.019531 7.046875 -7.285156 7.390625 -7.578125 C 7.734375 -7.878906 8.015625 -8.175781 8.234375 -8.46875 C 8.453125 -8.757812 8.5625 -9.03125 8.5625 -9.28125 C 8.5625 -9.625 8.347656 -9.796875 7.921875 -9.796875 Z M 7.921875 -9.796875 "/></g></g></g><g fill="#597cff" fill-opacity="0.302"><g transform="translate(79.009433, 28.133779)"><g><path d="M 0.34375 0 C 0.695312 -0.976562 0.976562 -2.035156 1.1875 -3.171875 C 1.394531 -4.316406 1.5 -5.472656 1.5 -6.640625 C 1.5 -7.691406 1.40625 -8.738281 1.21875 -9.78125 C 1.03125 -10.832031 0.738281 -11.835938 0.34375 -12.796875 L 9.640625 -12.796875 L 9.640625 -8.453125 C 9.515625 -8.503906 9.273438 -8.601562 8.921875 -8.75 C 8.578125 -8.894531 8.164062 -9.050781 7.6875 -9.21875 C 7.207031 -9.394531 6.71875 -9.546875 6.21875 -9.671875 C 5.726562 -9.796875 5.273438 -9.859375 4.859375 -9.859375 C 4.515625 -9.859375 4.222656 -9.738281 3.984375 -9.5 C 3.742188 -9.257812 3.546875 -8.960938 3.390625 -8.609375 C 3.242188 -8.253906 3.132812 -7.890625 3.0625 -7.515625 C 3 -7.140625 2.96875 -6.816406 2.96875 -6.546875 C 2.96875 -6.335938 3.003906 -6.1875 3.078125 -6.09375 C 3.148438 -6.007812 3.257812 -5.96875 3.40625 -5.96875 C 3.601562 -5.96875 3.835938 -6.023438 4.109375 -6.140625 C 4.390625 -6.265625 4.703125 -6.40625 5.046875 -6.5625 C 5.390625 -6.71875 5.75 -6.851562 6.125 -6.96875 C 6.5 -7.09375 6.867188 -7.15625 7.234375 -7.15625 C 7.285156 -7.15625 7.34375 -7.148438 7.40625 -7.140625 C 7.476562 -7.140625 7.550781 -7.132812 7.625 -7.125 L 7.625 -4.75 C 6.78125 -5.007812 6.015625 -5.21875 5.328125 -5.375 C 4.648438 -5.53125 4.007812 -5.609375 3.40625 -5.609375 C 3.226562 -5.398438 3.050781 -5.164062 2.875 -4.90625 C 2.707031 -4.644531 2.566406 -4.394531 2.453125 -4.15625 C 2.347656 -3.914062 2.296875 -3.710938 2.296875 -3.546875 C 2.296875 -3.398438 2.363281 -3.28125 2.5 -3.1875 C 2.632812 -3.09375 2.800781 -3.023438 3 -2.984375 C 3.195312 -2.941406 3.382812 -2.914062 3.5625 -2.90625 C 3.738281 -2.894531 3.878906 -2.890625 3.984375 -2.890625 C 4.453125 -2.890625 5.015625 -2.9375 5.671875 -3.03125 C 6.328125 -3.125 7.003906 -3.257812 7.703125 -3.4375 C 8.398438 -3.625 9.046875 -3.84375 9.640625 -4.09375 L 9.640625 0 Z M 0.34375 0 "/></g></g></g><g fill="#597cff" fill-opacity="0.502"><g transform="translate(37.031668, 27.383908)"><g><path d="M 0.28125 0 L 0.28125 -4.203125 C 0.488281 -4.128906 0.84375 -4.019531 1.34375 -3.875 C 1.851562 -3.738281 2.4375 -3.59375 3.09375 -3.4375 C 3.757812 -3.289062 4.4375 -3.164062 5.125 -3.0625 C 5.8125 -2.96875 6.429688 -2.921875 6.984375 -2.921875 C 7.078125 -2.921875 7.21875 -2.925781 7.40625 -2.9375 C 7.601562 -2.945312 7.800781 -2.972656 8 -3.015625 C 8.207031 -3.066406 8.378906 -3.132812 8.515625 -3.21875 C 8.660156 -3.3125 8.734375 -3.4375 8.734375 -3.59375 C 8.734375 -3.75 8.582031 -3.878906 8.28125 -3.984375 C 7.988281 -4.097656 7.59375 -4.207031 7.09375 -4.3125 C 6.59375 -4.425781 6.046875 -4.554688 5.453125 -4.703125 C 4.867188 -4.847656 4.28125 -5.039062 3.6875 -5.28125 C 3.09375 -5.519531 2.546875 -5.820312 2.046875 -6.1875 C 1.554688 -6.5625 1.160156 -7.03125 0.859375 -7.59375 C 0.554688 -8.15625 0.40625 -8.832031 0.40625 -9.625 C 0.40625 -10.207031 0.523438 -10.695312 0.765625 -11.09375 C 1.015625 -11.5 1.335938 -11.828125 1.734375 -12.078125 C 2.140625 -12.328125 2.585938 -12.515625 3.078125 -12.640625 C 3.566406 -12.773438 4.066406 -12.867188 4.578125 -12.921875 C 5.085938 -12.972656 5.5625 -13 6 -13 C 6.457031 -13 6.945312 -12.972656 7.46875 -12.921875 C 7.988281 -12.878906 8.390625 -12.835938 8.671875 -12.796875 L 8.671875 -8.515625 C 8.441406 -8.710938 8.148438 -8.914062 7.796875 -9.125 C 7.441406 -9.332031 7.003906 -9.503906 6.484375 -9.640625 C 5.972656 -9.785156 5.367188 -9.859375 4.671875 -9.859375 C 4.085938 -9.859375 3.535156 -9.765625 3.015625 -9.578125 C 2.492188 -9.398438 2.066406 -9.171875 1.734375 -8.890625 C 1.398438 -8.617188 1.234375 -8.34375 1.234375 -8.0625 C 1.234375 -7.851562 1.300781 -7.695312 1.4375 -7.59375 C 1.582031 -7.5 1.75 -7.429688 1.9375 -7.390625 C 2.132812 -7.359375 2.316406 -7.34375 2.484375 -7.34375 C 2.941406 -7.34375 3.472656 -7.390625 4.078125 -7.484375 C 4.679688 -7.578125 5.285156 -7.625 5.890625 -7.625 C 6.328125 -7.625 6.75 -7.570312 7.15625 -7.46875 C 7.570312 -7.375 7.9375 -7.203125 8.25 -6.953125 C 8.570312 -6.703125 8.828125 -6.34375 9.015625 -5.875 C 9.203125 -5.414062 9.296875 -4.820312 9.296875 -4.09375 C 9.296875 -3.300781 9.140625 -2.628906 8.828125 -2.078125 C 8.515625 -1.523438 8.109375 -1.078125 7.609375 -0.734375 C 7.109375 -0.398438 6.566406 -0.160156 5.984375 -0.015625 C 5.410156 0.128906 4.859375 0.203125 4.328125 0.203125 C 4.078125 0.203125 3.765625 0.195312 3.390625 0.1875 C 3.023438 0.175781 2.644531 0.160156 2.25 0.140625 C 1.851562 0.128906 1.484375 0.109375 1.140625 0.078125 C 0.796875 0.0546875 0.507812 0.03125 0.28125 0 Z M 0.28125 0 "/></g></g></g><g fill="#597cff" fill-opacity="0.502"><g transform="translate(46.617577, 27.383908)"><g><path d="M 2.765625 0 C 2.523438 -0.46875 2.359375 -0.914062 2.265625 -1.34375 C 2.171875 -1.769531 2.125 -2.1875 2.125 -2.59375 C 2.125 -3.3125 2.238281 -3.976562 2.46875 -4.59375 C 2.695312 -5.21875 2.960938 -5.789062 3.265625 -6.3125 C 3.566406 -6.84375 3.832031 -7.316406 4.0625 -7.734375 C 4.289062 -8.160156 4.40625 -8.53125 4.40625 -8.84375 C 4.40625 -9.132812 4.289062 -9.351562 4.0625 -9.5 C 3.832031 -9.644531 3.582031 -9.71875 3.3125 -9.71875 C 2.957031 -9.71875 2.570312 -9.640625 2.15625 -9.484375 C 1.75 -9.335938 1.359375 -9.171875 0.984375 -8.984375 C 0.617188 -8.796875 0.316406 -8.648438 0.078125 -8.546875 L 0.078125 -12.796875 L 9.734375 -12.796875 L 9.734375 -8.546875 C 9.648438 -8.617188 9.5 -8.722656 9.28125 -8.859375 C 9.0625 -9.003906 8.804688 -9.144531 8.515625 -9.28125 C 8.222656 -9.425781 7.914062 -9.550781 7.59375 -9.65625 C 7.28125 -9.757812 6.976562 -9.8125 6.6875 -9.8125 C 6.3125 -9.8125 6.019531 -9.726562 5.8125 -9.5625 C 5.601562 -9.40625 5.445312 -9.195312 5.34375 -8.9375 C 5.238281 -8.6875 5.175781 -8.414062 5.15625 -8.125 C 5.132812 -7.832031 5.125 -7.550781 5.125 -7.28125 C 5.125 -6.40625 5.242188 -5.550781 5.484375 -4.71875 C 5.734375 -3.894531 6.0625 -3.085938 6.46875 -2.296875 C 6.875 -1.515625 7.304688 -0.75 7.765625 0 Z M 2.765625 0 "/></g></g></g><g fill="#597cff" fill-opacity="0.502"><g transform="translate(56.441014, 27.383908)"><g><path d="M 5.6875 0.203125 C 4.78125 0.203125 3.988281 0.015625 3.3125 -0.359375 C 2.632812 -0.734375 2.070312 -1.234375 1.625 -1.859375 C 1.175781 -2.492188 0.835938 -3.203125 0.609375 -3.984375 C 0.378906 -4.765625 0.265625 -5.566406 0.265625 -6.390625 C 0.265625 -7.222656 0.378906 -8.03125 0.609375 -8.8125 C 0.835938 -9.601562 1.175781 -10.3125 1.625 -10.9375 C 2.070312 -11.5625 2.632812 -12.0625 3.3125 -12.4375 C 3.988281 -12.8125 4.78125 -13 5.6875 -13 C 6.59375 -13 7.382812 -12.8125 8.0625 -12.4375 C 8.738281 -12.0625 9.300781 -11.5625 9.75 -10.9375 C 10.207031 -10.3125 10.546875 -9.601562 10.765625 -8.8125 C 10.992188 -8.03125 11.109375 -7.222656 11.109375 -6.390625 C 11.109375 -5.566406 10.992188 -4.765625 10.765625 -3.984375 C 10.546875 -3.203125 10.207031 -2.492188 9.75 -1.859375 C 9.300781 -1.234375 8.738281 -0.734375 8.0625 -0.359375 C 7.382812 0.015625 6.59375 0.203125 5.6875 0.203125 Z M 8.859375 -9.796875 C 8.492188 -9.796875 8.050781 -9.703125 7.53125 -9.515625 C 7.019531 -9.335938 6.484375 -9.09375 5.921875 -8.78125 C 5.359375 -8.46875 4.800781 -8.113281 4.25 -7.71875 C 3.707031 -7.320312 3.21875 -6.90625 2.78125 -6.46875 C 2.34375 -6.03125 1.988281 -5.597656 1.71875 -5.171875 C 1.457031 -4.742188 1.328125 -4.34375 1.328125 -3.96875 C 1.328125 -3.613281 1.441406 -3.363281 1.671875 -3.21875 C 1.910156 -3.070312 2.191406 -3 2.515625 -3 C 2.890625 -3 3.328125 -3.085938 3.828125 -3.265625 C 4.335938 -3.453125 4.875 -3.703125 5.4375 -4.015625 C 6.007812 -4.328125 6.566406 -4.679688 7.109375 -5.078125 C 7.648438 -5.472656 8.144531 -5.882812 8.59375 -6.3125 C 9.039062 -6.75 9.394531 -7.1875 9.65625 -7.625 C 9.925781 -8.0625 10.0625 -8.46875 10.0625 -8.84375 C 10.0625 -9.1875 9.9375 -9.429688 9.6875 -9.578125 C 9.445312 -9.722656 9.171875 -9.796875 8.859375 -9.796875 Z M 8.859375 -9.796875 "/></g></g></g><g fill="#597cff" fill-opacity="0.502"><g transform="translate(67.808376, 27.383908)"><g><path d="M 0.34375 0 C 0.695312 -0.976562 0.976562 -2.035156 1.1875 -3.171875 C 1.394531 -4.316406 1.5 -5.472656 1.5 -6.640625 C 1.5 -7.691406 1.40625 -8.738281 1.21875 -9.78125 C 1.03125 -10.832031 0.738281 -11.835938 0.34375 -12.796875 C 0.625 -12.835938 0.957031 -12.875 1.34375 -12.90625 C 1.738281 -12.9375 2.144531 -12.957031 2.5625 -12.96875 C 2.988281 -12.988281 3.378906 -13 3.734375 -13 C 4.523438 -13 5.300781 -12.945312 6.0625 -12.84375 C 6.832031 -12.738281 7.523438 -12.5625 8.140625 -12.3125 C 8.753906 -12.070312 9.242188 -11.722656 9.609375 -11.265625 C 9.984375 -10.816406 10.171875 -10.234375 10.171875 -9.515625 C 10.171875 -8.859375 9.992188 -8.253906 9.640625 -7.703125 C 9.285156 -7.160156 8.765625 -6.707031 8.078125 -6.34375 C 7.398438 -5.976562 6.546875 -5.753906 5.515625 -5.671875 C 5.640625 -5.273438 5.878906 -4.960938 6.234375 -4.734375 C 6.585938 -4.515625 7.003906 -4.363281 7.484375 -4.28125 C 7.960938 -4.195312 8.4375 -4.15625 8.90625 -4.15625 C 9.132812 -4.15625 9.351562 -4.160156 9.5625 -4.171875 C 9.769531 -4.191406 9.960938 -4.207031 10.140625 -4.21875 L 10.140625 0 C 9.722656 0.113281 9.332031 0.171875 8.96875 0.171875 C 8.40625 0.171875 7.929688 0.046875 7.546875 -0.203125 C 7.171875 -0.460938 6.847656 -0.789062 6.578125 -1.1875 C 6.304688 -1.582031 6.054688 -2.003906 5.828125 -2.453125 C 5.609375 -2.898438 5.367188 -3.320312 5.109375 -3.71875 C 4.847656 -4.113281 4.53125 -4.4375 4.15625 -4.6875 C 3.789062 -4.945312 3.335938 -5.078125 2.796875 -5.078125 C 2.796875 -4.035156 2.929688 -3.09375 3.203125 -2.25 C 3.484375 -1.40625 3.921875 -0.65625 4.515625 0 Z M 7.921875 -9.796875 C 7.671875 -9.796875 7.363281 -9.71875 7 -9.5625 C 6.632812 -9.414062 6.253906 -9.222656 5.859375 -8.984375 C 5.460938 -8.753906 5.085938 -8.488281 4.734375 -8.1875 C 4.378906 -7.894531 4.09375 -7.601562 3.875 -7.3125 C 3.65625 -7.019531 3.546875 -6.75 3.546875 -6.5 C 3.546875 -6.15625 3.765625 -5.984375 4.203125 -5.984375 C 4.453125 -5.984375 4.757812 -6.054688 5.125 -6.203125 C 5.488281 -6.359375 5.867188 -6.550781 6.265625 -6.78125 C 6.671875 -7.019531 7.046875 -7.285156 7.390625 -7.578125 C 7.734375 -7.878906 8.015625 -8.175781 8.234375 -8.46875 C 8.453125 -8.757812 8.5625 -9.03125 8.5625 -9.28125 C 8.5625 -9.625 8.347656 -9.796875 7.921875 -9.796875 Z M 7.921875 -9.796875 "/></g></g></g><g fill="#597cff" fill-opacity="0.502"><g transform="translate(78.259561, 27.383908)"><g><path d="M 0.34375 0 C 0.695312 -0.976562 0.976562 -2.035156 1.1875 -3.171875 C 1.394531 -4.316406 1.5 -5.472656 1.5 -6.640625 C 1.5 -7.691406 1.40625 -8.738281 1.21875 -9.78125 C 1.03125 -10.832031 0.738281 -11.835938 0.34375 -12.796875 L 9.640625 -12.796875 L 9.640625 -8.453125 C 9.515625 -8.503906 9.273438 -8.601562 8.921875 -8.75 C 8.578125 -8.894531 8.164062 -9.050781 7.6875 -9.21875 C 7.207031 -9.394531 6.71875 -9.546875 6.21875 -9.671875 C 5.726562 -9.796875 5.273438 -9.859375 4.859375 -9.859375 C 4.515625 -9.859375 4.222656 -9.738281 3.984375 -9.5 C 3.742188 -9.257812 3.546875 -8.960938 3.390625 -8.609375 C 3.242188 -8.253906 3.132812 -7.890625 3.0625 -7.515625 C 3 -7.140625 2.96875 -6.816406 2.96875 -6.546875 C 2.96875 -6.335938 3.003906 -6.1875 3.078125 -6.09375 C 3.148438 -6.007812 3.257812 -5.96875 3.40625 -5.96875 C 3.601562 -5.96875 3.835938 -6.023438 4.109375 -6.140625 C 4.390625 -6.265625 4.703125 -6.40625 5.046875 -6.5625 C 5.390625 -6.71875 5.75 -6.851562 6.125 -6.96875 C 6.5 -7.09375 6.867188 -7.15625 7.234375 -7.15625 C 7.285156 -7.15625 7.34375 -7.148438 7.40625 -7.140625 C 7.476562 -7.140625 7.550781 -7.132812 7.625 -7.125 L 7.625 -4.75 C 6.78125 -5.007812 6.015625 -5.21875 5.328125 -5.375 C 4.648438 -5.53125 4.007812 -5.609375 3.40625 -5.609375 C 3.226562 -5.398438 3.050781 -5.164062 2.875 -4.90625 C 2.707031 -4.644531 2.566406 -4.394531 2.453125 -4.15625 C 2.347656 -3.914062 2.296875 -3.710938 2.296875 -3.546875 C 2.296875 -3.398438 2.363281 -3.28125 2.5 -3.1875 C 2.632812 -3.09375 2.800781 -3.023438 3 -2.984375 C 3.195312 -2.941406 3.382812 -2.914062 3.5625 -2.90625 C 3.738281 -2.894531 3.878906 -2.890625 3.984375 -2.890625 C 4.453125 -2.890625 5.015625 -2.9375 5.671875 -3.03125 C 6.328125 -3.125 7.003906 -3.257812 7.703125 -3.4375 C 8.398438 -3.625 9.046875 -3.84375 9.640625 -4.09375 L 9.640625 0 Z M 0.34375 0 "/></g></g></g><g fill="#0097b2" fill-opacity="1"><g transform="translate(36.281796, 26.634036)"><g><path d="M 0.28125 0 L 0.28125 -4.203125 C 0.488281 -4.128906 0.84375 -4.019531 1.34375 -3.875 C 1.851562 -3.738281 2.4375 -3.59375 3.09375 -3.4375 C 3.757812 -3.289062 4.4375 -3.164062 5.125 -3.0625 C 5.8125 -2.96875 6.429688 -2.921875 6.984375 -2.921875 C 7.078125 -2.921875 7.21875 -2.925781 7.40625 -2.9375 C 7.601562 -2.945312 7.800781 -2.972656 8 -3.015625 C 8.207031 -3.066406 8.378906 -3.132812 8.515625 -3.21875 C 8.660156 -3.3125 8.734375 -3.4375 8.734375 -3.59375 C 8.734375 -3.75 8.582031 -3.878906 8.28125 -3.984375 C 7.988281 -4.097656 7.59375 -4.207031 7.09375 -4.3125 C 6.59375 -4.425781 6.046875 -4.554688 5.453125 -4.703125 C 4.867188 -4.847656 4.28125 -5.039062 3.6875 -5.28125 C 3.09375 -5.519531 2.546875 -5.820312 2.046875 -6.1875 C 1.554688 -6.5625 1.160156 -7.03125 0.859375 -7.59375 C 0.554688 -8.15625 0.40625 -8.832031 0.40625 -9.625 C 0.40625 -10.207031 0.523438 -10.695312 0.765625 -11.09375 C 1.015625 -11.5 1.335938 -11.828125 1.734375 -12.078125 C 2.140625 -12.328125 2.585938 -12.515625 3.078125 -12.640625 C 3.566406 -12.773438 4.066406 -12.867188 4.578125 -12.921875 C 5.085938 -12.972656 5.5625 -13 6 -13 C 6.457031 -13 6.945312 -12.972656 7.46875 -12.921875 C 7.988281 -12.878906 8.390625 -12.835938 8.671875 -12.796875 L 8.671875 -8.515625 C 8.441406 -8.710938 8.148438 -8.914062 7.796875 -9.125 C 7.441406 -9.332031 7.003906 -9.503906 6.484375 -9.640625 C 5.972656 -9.785156 5.367188 -9.859375 4.671875 -9.859375 C 4.085938 -9.859375 3.535156 -9.765625 3.015625 -9.578125 C 2.492188 -9.398438 2.066406 -9.171875 1.734375 -8.890625 C 1.398438 -8.617188 1.234375 -8.34375 1.234375 -8.0625 C 1.234375 -7.851562 1.300781 -7.695312 1.4375 -7.59375 C 1.582031 -7.5 1.75 -7.429688 1.9375 -7.390625 C 2.132812 -7.359375 2.316406 -7.34375 2.484375 -7.34375 C 2.941406 -7.34375 3.472656 -7.390625 4.078125 -7.484375 C 4.679688 -7.578125 5.285156 -7.625 5.890625 -7.625 C 6.328125 -7.625 6.75 -7.570312 7.15625 -7.46875 C 7.570312 -7.375 7.9375 -7.203125 8.25 -6.953125 C 8.570312 -6.703125 8.828125 -6.34375 9.015625 -5.875 C 9.203125 -5.414062 9.296875 -4.820312 9.296875 -4.09375 C 9.296875 -3.300781 9.140625 -2.628906 8.828125 -2.078125 C 8.515625 -1.523438 8.109375 -1.078125 7.609375 -0.734375 C 7.109375 -0.398438 6.566406 -0.160156 5.984375 -0.015625 C 5.410156 0.128906 4.859375 0.203125 4.328125 0.203125 C 4.078125 0.203125 3.765625 0.195312 3.390625 0.1875 C 3.023438 0.175781 2.644531 0.160156 2.25 0.140625 C 1.851562 0.128906 1.484375 0.109375 1.140625 0.078125 C 0.796875 0.0546875 0.507812 0.03125 0.28125 0 Z M 0.28125 0 "/></g></g></g><g fill="#0097b2" fill-opacity="1"><g transform="translate(45.867705, 26.634036)"><g><path d="M 2.765625 0 C 2.523438 -0.46875 2.359375 -0.914062 2.265625 -1.34375 C 2.171875 -1.769531 2.125 -2.1875 2.125 -2.59375 C 2.125 -3.3125 2.238281 -3.976562 2.46875 -4.59375 C 2.695312 -5.21875 2.960938 -5.789062 3.265625 -6.3125 C 3.566406 -6.84375 3.832031 -7.316406 4.0625 -7.734375 C 4.289062 -8.160156 4.40625 -8.53125 4.40625 -8.84375 C 4.40625 -9.132812 4.289062 -9.351562 4.0625 -9.5 C 3.832031 -9.644531 3.582031 -9.71875 3.3125 -9.71875 C 2.957031 -9.71875 2.570312 -9.640625 2.15625 -9.484375 C 1.75 -9.335938 1.359375 -9.171875 0.984375 -8.984375 C 0.617188 -8.796875 0.316406 -8.648438 0.078125 -8.546875 L 0.078125 -12.796875 L 9.734375 -12.796875 L 9.734375 -8.546875 C 9.648438 -8.617188 9.5 -8.722656 9.28125 -8.859375 C 9.0625 -9.003906 8.804688 -9.144531 8.515625 -9.28125 C 8.222656 -9.425781 7.914062 -9.550781 7.59375 -9.65625 C 7.28125 -9.757812 6.976562 -9.8125 6.6875 -9.8125 C 6.3125 -9.8125 6.019531 -9.726562 5.8125 -9.5625 C 5.601562 -9.40625 5.445312 -9.195312 5.34375 -8.9375 C 5.238281 -8.6875 5.175781 -8.414062 5.15625 -8.125 C 5.132812 -7.832031 5.125 -7.550781 5.125 -7.28125 C 5.125 -6.40625 5.242188 -5.550781 5.484375 -4.71875 C 5.734375 -3.894531 6.0625 -3.085938 6.46875 -2.296875 C 6.875 -1.515625 7.304688 -0.75 7.765625 0 Z M 2.765625 0 "/></g></g></g><g fill="#0097b2" fill-opacity="1"><g transform="translate(55.691142, 26.634036)"><g><path d="M 5.6875 0.203125 C 4.78125 0.203125 3.988281 0.015625 3.3125 -0.359375 C 2.632812 -0.734375 2.070312 -1.234375 1.625 -1.859375 C 1.175781 -2.492188 0.835938 -3.203125 0.609375 -3.984375 C 0.378906 -4.765625 0.265625 -5.566406 0.265625 -6.390625 C 0.265625 -7.222656 0.378906 -8.03125 0.609375 -8.8125 C 0.835938 -9.601562 1.175781 -10.3125 1.625 -10.9375 C 2.070312 -11.5625 2.632812 -12.0625 3.3125 -12.4375 C 3.988281 -12.8125 4.78125 -13 5.6875 -13 C 6.59375 -13 7.382812 -12.8125 8.0625 -12.4375 C 8.738281 -12.0625 9.300781 -11.5625 9.75 -10.9375 C 10.207031 -10.3125 10.546875 -9.601562 10.765625 -8.8125 C 10.992188 -8.03125 11.109375 -7.222656 11.109375 -6.390625 C 11.109375 -5.566406 10.992188 -4.765625 10.765625 -3.984375 C 10.546875 -3.203125 10.207031 -2.492188 9.75 -1.859375 C 9.300781 -1.234375 8.738281 -0.734375 8.0625 -0.359375 C 7.382812 0.015625 6.59375 0.203125 5.6875 0.203125 Z M 8.859375 -9.796875 C 8.492188 -9.796875 8.050781 -9.703125 7.53125 -9.515625 C 7.019531 -9.335938 6.484375 -9.09375 5.921875 -8.78125 C 5.359375 -8.46875 4.800781 -8.113281 4.25 -7.71875 C 3.707031 -7.320312 3.21875 -6.90625 2.78125 -6.46875 C 2.34375 -6.03125 1.988281 -5.597656 1.71875 -5.171875 C 1.457031 -4.742188 1.328125 -4.34375 1.328125 -3.96875 C 1.328125 -3.613281 1.441406 -3.363281 1.671875 -3.21875 C 1.910156 -3.070312 2.191406 -3 2.515625 -3 C 2.890625 -3 3.328125 -3.085938 3.828125 -3.265625 C 4.335938 -3.453125 4.875 -3.703125 5.4375 -4.015625 C 6.007812 -4.328125 6.566406 -4.679688 7.109375 -5.078125 C 7.648438 -5.472656 8.144531 -5.882812 8.59375 -6.3125 C 9.039062 -6.75 9.394531 -7.1875 9.65625 -7.625 C 9.925781 -8.0625 10.0625 -8.46875 10.0625 -8.84375 C 10.0625 -9.1875 9.9375 -9.429688 9.6875 -9.578125 C 9.445312 -9.722656 9.171875 -9.796875 8.859375 -9.796875 Z M 8.859375 -9.796875 "/></g></g></g><g fill="#0097b2" fill-opacity="1"><g transform="translate(67.058504, 26.634036)"><g><path d="M 0.34375 0 C 0.695312 -0.976562 0.976562 -2.035156 1.1875 -3.171875 C 1.394531 -4.316406 1.5 -5.472656 1.5 -6.640625 C 1.5 -7.691406 1.40625 -8.738281 1.21875 -9.78125 C 1.03125 -10.832031 0.738281 -11.835938 0.34375 -12.796875 C 0.625 -12.835938 0.957031 -12.875 1.34375 -12.90625 C 1.738281 -12.9375 2.144531 -12.957031 2.5625 -12.96875 C 2.988281 -12.988281 3.378906 -13 3.734375 -13 C 4.523438 -13 5.300781 -12.945312 6.0625 -12.84375 C 6.832031 -12.738281 7.523438 -12.5625 8.140625 -12.3125 C 8.753906 -12.070312 9.242188 -11.722656 9.609375 -11.265625 C 9.984375 -10.816406 10.171875 -10.234375 10.171875 -9.515625 C 10.171875 -8.859375 9.992188 -8.253906 9.640625 -7.703125 C 9.285156 -7.160156 8.765625 -6.707031 8.078125 -6.34375 C 7.398438 -5.976562 6.546875 -5.753906 5.515625 -5.671875 C 5.640625 -5.273438 5.878906 -4.960938 6.234375 -4.734375 C 6.585938 -4.515625 7.003906 -4.363281 7.484375 -4.28125 C 7.960938 -4.195312 8.4375 -4.15625 8.90625 -4.15625 C 9.132812 -4.15625 9.351562 -4.160156 9.5625 -4.171875 C 9.769531 -4.191406 9.960938 -4.207031 10.140625 -4.21875 L 10.140625 0 C 9.722656 0.113281 9.332031 0.171875 8.96875 0.171875 C 8.40625 0.171875 7.929688 0.046875 7.546875 -0.203125 C 7.171875 -0.460938 6.847656 -0.789062 6.578125 -1.1875 C 6.304688 -1.582031 6.054688 -2.003906 5.828125 -2.453125 C 5.609375 -2.898438 5.367188 -3.320312 5.109375 -3.71875 C 4.847656 -4.113281 4.53125 -4.4375 4.15625 -4.6875 C 3.789062 -4.945312 3.335938 -5.078125 2.796875 -5.078125 C 2.796875 -4.035156 2.929688 -3.09375 3.203125 -2.25 C 3.484375 -1.40625 3.921875 -0.65625 4.515625 0 Z M 7.921875 -9.796875 C 7.671875 -9.796875 7.363281 -9.71875 7 -9.5625 C 6.632812 -9.414062 6.253906 -9.222656 5.859375 -8.984375 C 5.460938 -8.753906 5.085938 -8.488281 4.734375 -8.1875 C 4.378906 -7.894531 4.09375 -7.601562 3.875 -7.3125 C 3.65625 -7.019531 3.546875 -6.75 3.546875 -6.5 C 3.546875 -6.15625 3.765625 -5.984375 4.203125 -5.984375 C 4.453125 -5.984375 4.757812 -6.054688 5.125 -6.203125 C 5.488281 -6.359375 5.867188 -6.550781 6.265625 -6.78125 C 6.671875 -7.019531 7.046875 -7.285156 7.390625 -7.578125 C 7.734375 -7.878906 8.015625 -8.175781 8.234375 -8.46875 C 8.453125 -8.757812 8.5625 -9.03125 8.5625 -9.28125 C 8.5625 -9.625 8.347656 -9.796875 7.921875 -9.796875 Z M 7.921875 -9.796875 "/></g></g></g><g fill="#0097b2" fill-opacity="1"><g transform="translate(77.509689, 26.634036)"><g><path d="M 0.34375 0 C 0.695312 -0.976562 0.976562 -2.035156 1.1875 -3.171875 C 1.394531 -4.316406 1.5 -5.472656 1.5 -6.640625 C 1.5 -7.691406 1.40625 -8.738281 1.21875 -9.78125 C 1.03125 -10.832031 0.738281 -11.835938 0.34375 -12.796875 L 9.640625 -12.796875 L 9.640625 -8.453125 C 9.515625 -8.503906 9.273438 -8.601562 8.921875 -8.75 C 8.578125 -8.894531 8.164062 -9.050781 7.6875 -9.21875 C 7.207031 -9.394531 6.71875 -9.546875 6.21875 -9.671875 C 5.726562 -9.796875 5.273438 -9.859375 4.859375 -9.859375 C 4.515625 -9.859375 4.222656 -9.738281 3.984375 -9.5 C 3.742188 -9.257812 3.546875 -8.960938 3.390625 -8.609375 C 3.242188 -8.253906 3.132812 -7.890625 3.0625 -7.515625 C 3 -7.140625 2.96875 -6.816406 2.96875 -6.546875 C 2.96875 -6.335938 3.003906 -6.1875 3.078125 -6.09375 C 3.148438 -6.007812 3.257812 -5.96875 3.40625 -5.96875 C 3.601562 -5.96875 3.835938 -6.023438 4.109375 -6.140625 C 4.390625 -6.265625 4.703125 -6.40625 5.046875 -6.5625 C 5.390625 -6.71875 5.75 -6.851562 6.125 -6.96875 C 6.5 -7.09375 6.867188 -7.15625 7.234375 -7.15625 C 7.285156 -7.15625 7.34375 -7.148438 7.40625 -7.140625 C 7.476562 -7.140625 7.550781 -7.132812 7.625 -7.125 L 7.625 -4.75 C 6.78125 -5.007812 6.015625 -5.21875 5.328125 -5.375 C 4.648438 -5.53125 4.007812 -5.609375 3.40625 -5.609375 C 3.226562 -5.398438 3.050781 -5.164062 2.875 -4.90625 C 2.707031 -4.644531 2.566406 -4.394531 2.453125 -4.15625 C 2.347656 -3.914062 2.296875 -3.710938 2.296875 -3.546875 C 2.296875 -3.398438 2.363281 -3.28125 2.5 -3.1875 C 2.632812 -3.09375 2.800781 -3.023438 3 -2.984375 C 3.195312 -2.941406 3.382812 -2.914062 3.5625 -2.90625 C 3.738281 -2.894531 3.878906 -2.890625 3.984375 -2.890625 C 4.453125 -2.890625 5.015625 -2.9375 5.671875 -3.03125 C 6.328125 -3.125 7.003906 -3.257812 7.703125 -3.4375 C 8.398438 -3.625 9.046875 -3.84375 9.640625 -4.09375 L 9.640625 0 Z M 0.34375 0 "/></g></g></g><g clip-path="url(#ea472e0841)"><path fill="#0097b2" d="M 30.347656 15.214844 C 30.285156 15.230469 30.226562 15.234375 30.164062 15.234375 C 29.886719 15.234375 29.632812 15.054688 29.550781 14.777344 C 29.445312 14.402344 29.105469 14.152344 28.714844 14.152344 L 9.398438 14.152344 C 9.046875 14.152344 8.757812 13.867188 8.757812 13.515625 C 8.757812 13.160156 9.046875 12.875 9.398438 12.875 L 28.722656 12.875 C 29.667969 12.875 30.519531 13.515625 30.78125 14.425781 C 30.878906 14.761719 30.683594 15.117188 30.347656 15.214844 Z M 30.347656 15.214844 " fill-opacity="1" fill-rule="nonzero"/></g><g clip-path="url(#8ff706c949)"><path fill="#0097b2" d="M 27.105469 33.222656 C 27.105469 34.890625 25.746094 36.25 24.074219 36.25 C 22.40625 36.25 21.046875 34.890625 21.046875 33.222656 C 21.046875 31.550781 22.40625 30.191406 24.074219 30.191406 C 25.746094 30.191406 27.105469 31.550781 27.105469 33.222656 Z M 22.324219 33.222656 C 22.324219 34.183594 23.113281 34.972656 24.074219 34.972656 C 25.039062 34.972656 25.828125 34.191406 25.828125 33.222656 C 25.828125 32.25 25.046875 31.46875 24.074219 31.46875 C 23.105469 31.46875 22.324219 32.257812 22.324219 33.222656 Z M 22.324219 33.222656 " fill-opacity="1" fill-rule="nonzero"/></g><g clip-path="url(#2b68af1278)"><path fill="#0097b2" d="M 12.878906 30.191406 C 14.550781 30.191406 15.910156 31.550781 15.910156 33.222656 C 15.910156 34.890625 14.550781 36.25 12.878906 36.25 C 11.210938 36.25 9.851562 34.890625 9.851562 33.222656 C 9.851562 31.550781 11.210938 30.191406 12.878906 30.191406 Z M 12.878906 34.972656 C 13.84375 34.972656 14.632812 34.191406 14.632812 33.222656 C 14.632812 32.25 13.851562 31.46875 12.878906 31.46875 C 11.910156 31.46875 11.128906 32.25 11.128906 33.222656 C 11.128906 34.191406 11.910156 34.972656 12.878906 34.972656 Z M 12.878906 34.972656 " fill-opacity="1" fill-rule="nonzero"/></g><path fill="#0097b2" d="M 8.617188 27.046875 C 8.5625 26.90625 8.617188 26.394531 9.097656 26.28125 C 9.445312 26.207031 9.78125 26.417969 9.855469 26.753906 C 10.015625 27.429688 10.632812 27.460938 10.707031 27.460938 L 26.261719 27.460938 C 26.851562 27.460938 27.058594 26.964844 27.113281 26.753906 C 27.195312 26.417969 27.535156 26.207031 27.871094 26.28125 C 28.210938 26.355469 28.429688 26.703125 28.351562 27.039062 L 28.367188 27.039062 C 28.164062 27.988281 27.316406 28.730469 26.253906 28.730469 C 17.1875 28.730469 19.796875 28.730469 10.683594 28.730469 C 9.675781 28.730469 8.796875 28.019531 8.585938 27.039062 Z M 8.617188 27.046875 " fill-opacity="1" fill-rule="nonzero"/><g clip-path="url(#08f1e8a7aa)"><path fill="#f6931c" d="M 0.652344 8.671875 L 4.253906 8.671875 C 5.253906 8.671875 6.144531 9.386719 6.351562 10.363281 L 7.660156 16.523438 L 29.804688 16.523438 C 30 16.523438 30.179688 16.613281 30.300781 16.753906 C 30.421875 16.90625 30.464844 17.101562 30.429688 17.289062 L 29.652344 20.933594 C 29.59375 21.230469 29.332031 21.4375 29.03125 21.4375 L 8.707031 21.4375 L 9.21875 23.808594 L 28.25 23.808594 C 28.601562 23.808594 28.886719 24.09375 28.886719 24.445312 C 28.886719 24.800781 28.601562 25.085938 28.25 25.085938 L 8.699219 25.085938 C 8.398438 25.085938 8.136719 24.875 8.074219 24.582031 L 7.292969 20.933594 C 7.253906 20.746094 7.300781 20.550781 7.421875 20.402344 C 7.542969 20.25 7.722656 20.160156 7.917969 20.160156 L 28.511719 20.160156 L 29.015625 17.792969 L 7.144531 17.792969 C 6.84375 17.792969 6.578125 17.582031 6.519531 17.289062 L 5.105469 10.628906 C 5.015625 10.230469 4.660156 9.941406 4.253906 9.941406 L 0.652344 9.941406 C 0.300781 9.941406 0.015625 9.65625 0.015625 9.304688 C 0.015625 8.949219 0.300781 8.671875 0.652344 8.671875 Z M 0.652344 8.671875 " fill-opacity="1" fill-rule="nonzero"/></g><g fill="#000000" fill-opacity="1"><g transform="translate(46.549288, 34.064285)"><g><path d="M 2.75 -3.09375 L 2.75 -2.984375 L 0.890625 -0.125 L 2.734375 -0.125 L 2.734375 0 L 0.28125 0 L 0.28125 -0.09375 L 2.125 -2.96875 L 0.375 -2.96875 L 0.375 -3.09375 Z M 2.75 -3.09375 "/></g></g></g><g fill="#000000" fill-opacity="1"><g transform="translate(49.561582, 34.064285)"><g><path d="M 1.5 0.0625 C 1.28125 0.0625 1.078125 0.0234375 0.890625 -0.046875 C 0.710938 -0.128906 0.566406 -0.234375 0.453125 -0.359375 C 0.347656 -0.492188 0.296875 -0.640625 0.296875 -0.796875 L 0.4375 -0.796875 C 0.4375 -0.660156 0.476562 -0.535156 0.5625 -0.421875 C 0.65625 -0.316406 0.78125 -0.226562 0.9375 -0.15625 C 1.09375 -0.09375 1.257812 -0.0625 1.4375 -0.0625 C 1.6875 -0.0625 1.882812 -0.113281 2.03125 -0.21875 C 2.1875 -0.320312 2.265625 -0.445312 2.265625 -0.59375 C 2.265625 -0.707031 2.222656 -0.800781 2.140625 -0.875 C 2.066406 -0.957031 1.960938 -1.03125 1.828125 -1.09375 C 1.703125 -1.164062 1.5625 -1.234375 1.40625 -1.296875 C 1.257812 -1.367188 1.101562 -1.441406 0.9375 -1.515625 C 0.78125 -1.597656 0.644531 -1.703125 0.53125 -1.828125 C 0.425781 -1.953125 0.375 -2.109375 0.375 -2.296875 C 0.375 -2.546875 0.476562 -2.75 0.6875 -2.90625 C 0.90625 -3.0625 1.179688 -3.140625 1.515625 -3.140625 C 1.710938 -3.140625 1.890625 -3.101562 2.046875 -3.03125 C 2.210938 -2.96875 2.335938 -2.875 2.421875 -2.75 C 2.515625 -2.632812 2.5625 -2.5 2.5625 -2.34375 L 2.4375 -2.34375 C 2.4375 -2.539062 2.351562 -2.703125 2.1875 -2.828125 C 2.019531 -2.953125 1.8125 -3.015625 1.5625 -3.015625 C 1.34375 -3.015625 1.15625 -2.96875 1 -2.875 C 0.851562 -2.78125 0.78125 -2.65625 0.78125 -2.5 C 0.78125 -2.382812 0.816406 -2.285156 0.890625 -2.203125 C 0.972656 -2.117188 1.078125 -2.046875 1.203125 -1.984375 C 1.335938 -1.921875 1.484375 -1.859375 1.640625 -1.796875 C 1.796875 -1.734375 1.953125 -1.660156 2.109375 -1.578125 C 2.265625 -1.492188 2.394531 -1.390625 2.5 -1.265625 C 2.613281 -1.148438 2.671875 -1 2.671875 -0.8125 C 2.671875 -0.550781 2.566406 -0.335938 2.359375 -0.171875 C 2.148438 -0.015625 1.863281 0.0625 1.5 0.0625 Z M 1.5 0.0625 "/></g></g></g><g fill="#000000" fill-opacity="1"><g transform="translate(52.493627, 34.064285)"><g><path d="M 2.109375 -0.46875 L 2.25 -0.46875 C 2.25 -0.3125 2.171875 -0.179688 2.015625 -0.078125 C 1.867188 0.015625 1.6875 0.0625 1.46875 0.0625 C 1.3125 0.0625 1.164062 0.03125 1.03125 -0.03125 C 0.894531 -0.101562 0.785156 -0.195312 0.703125 -0.3125 C 0.628906 -0.4375 0.59375 -0.570312 0.59375 -0.71875 L 0.59375 -2.96875 L 0.203125 -2.96875 L 0.203125 -3.09375 L 0.59375 -3.09375 L 0.59375 -3.78125 L 1.140625 -3.9375 L 1.140625 -3.09375 L 2.09375 -3.09375 L 2.09375 -2.96875 L 1.140625 -2.96875 L 1.140625 -0.625 C 1.140625 -0.476562 1.1875 -0.351562 1.28125 -0.25 C 1.375 -0.15625 1.492188 -0.109375 1.640625 -0.109375 C 1.773438 -0.109375 1.882812 -0.140625 1.96875 -0.203125 C 2.0625 -0.273438 2.109375 -0.363281 2.109375 -0.46875 Z M 2.109375 -0.46875 "/></g></g></g><g fill="#000000" fill-opacity="1"><g transform="translate(54.826914, 34.064285)"><g><path d="M 1.921875 0.0625 C 1.617188 0.0625 1.34375 -0.00390625 1.09375 -0.140625 C 0.851562 -0.285156 0.660156 -0.476562 0.515625 -0.71875 C 0.367188 -0.96875 0.296875 -1.242188 0.296875 -1.546875 C 0.296875 -1.847656 0.367188 -2.117188 0.515625 -2.359375 C 0.660156 -2.609375 0.851562 -2.800781 1.09375 -2.9375 C 1.34375 -3.070312 1.617188 -3.140625 1.921875 -3.140625 C 2.234375 -3.140625 2.507812 -3.070312 2.75 -2.9375 C 3 -2.800781 3.195312 -2.609375 3.34375 -2.359375 C 3.488281 -2.117188 3.5625 -1.847656 3.5625 -1.546875 C 3.5625 -1.242188 3.488281 -0.96875 3.34375 -0.71875 C 3.195312 -0.476562 3 -0.285156 2.75 -0.140625 C 2.507812 -0.00390625 2.234375 0.0625 1.921875 0.0625 Z M 1.921875 -0.0625 C 2.242188 -0.0625 2.5 -0.191406 2.6875 -0.453125 C 2.882812 -0.722656 2.984375 -1.085938 2.984375 -1.546875 C 2.984375 -1.992188 2.882812 -2.351562 2.6875 -2.625 C 2.5 -2.894531 2.242188 -3.03125 1.921875 -3.03125 C 1.609375 -3.03125 1.351562 -2.894531 1.15625 -2.625 C 0.96875 -2.351562 0.875 -1.992188 0.875 -1.546875 C 0.875 -1.085938 0.96875 -0.722656 1.15625 -0.453125 C 1.351562 -0.191406 1.609375 -0.0625 1.921875 -0.0625 Z M 1.921875 -0.0625 "/></g></g></g><g fill="#000000" fill-opacity="1"><g transform="translate(58.684864, 34.064285)"><g><path d="M 2 -3.140625 C 2.207031 -3.140625 2.375 -3.078125 2.5 -2.953125 C 2.632812 -2.828125 2.703125 -2.664062 2.703125 -2.46875 L 2.578125 -2.46875 C 2.578125 -2.625 2.523438 -2.753906 2.421875 -2.859375 C 2.316406 -2.960938 2.175781 -3.015625 2 -3.015625 C 1.789062 -3.015625 1.601562 -2.941406 1.4375 -2.796875 C 1.269531 -2.660156 1.148438 -2.472656 1.078125 -2.234375 L 1.078125 0 L 0.53125 0 L 0.53125 -2.984375 L 1.078125 -3.109375 L 1.078125 -2.5 C 1.160156 -2.695312 1.285156 -2.851562 1.453125 -2.96875 C 1.617188 -3.082031 1.800781 -3.140625 2 -3.140625 Z M 2 -3.140625 "/></g></g></g><g fill="#000000" fill-opacity="1"><g transform="translate(61.542839, 34.064285)"><g><path d="M 2.109375 -0.078125 C 2.328125 -0.078125 2.53125 -0.117188 2.71875 -0.203125 C 2.90625 -0.296875 3.039062 -0.421875 3.125 -0.578125 L 3.265625 -0.578125 C 3.171875 -0.390625 3.007812 -0.234375 2.78125 -0.109375 C 2.550781 0.00390625 2.289062 0.0625 2 0.0625 C 1.664062 0.0625 1.367188 -0.00390625 1.109375 -0.140625 C 0.859375 -0.285156 0.660156 -0.476562 0.515625 -0.71875 C 0.367188 -0.96875 0.296875 -1.242188 0.296875 -1.546875 C 0.296875 -1.847656 0.367188 -2.117188 0.515625 -2.359375 C 0.660156 -2.609375 0.851562 -2.800781 1.09375 -2.9375 C 1.332031 -3.070312 1.597656 -3.140625 1.890625 -3.140625 C 2.179688 -3.140625 2.4375 -3.070312 2.65625 -2.9375 C 2.875 -2.8125 3.046875 -2.632812 3.171875 -2.40625 C 3.296875 -2.175781 3.359375 -1.921875 3.359375 -1.640625 L 0.875 -1.640625 L 0.875 -1.59375 C 0.875 -1.113281 0.984375 -0.738281 1.203125 -0.46875 C 1.429688 -0.207031 1.734375 -0.078125 2.109375 -0.078125 Z M 1.875 -3.03125 C 1.601562 -3.03125 1.375 -2.910156 1.1875 -2.671875 C 1.007812 -2.441406 0.90625 -2.140625 0.875 -1.765625 L 2.8125 -1.765625 C 2.800781 -2.148438 2.710938 -2.457031 2.546875 -2.6875 C 2.378906 -2.914062 2.15625 -3.03125 1.875 -3.03125 Z M 1.875 -3.03125 "/></g></g></g><g fill="#000000" fill-opacity="1"><g transform="translate(65.203261, 34.064285)"><g><path d="M 0.671875 0.03125 C 0.566406 0.03125 0.476562 -0.00390625 0.40625 -0.078125 C 0.332031 -0.148438 0.296875 -0.238281 0.296875 -0.34375 C 0.296875 -0.445312 0.332031 -0.535156 0.40625 -0.609375 C 0.476562 -0.691406 0.566406 -0.734375 0.671875 -0.734375 C 0.773438 -0.734375 0.863281 -0.691406 0.9375 -0.609375 C 1.019531 -0.535156 1.0625 -0.445312 1.0625 -0.34375 C 1.0625 -0.238281 1.019531 -0.148438 0.9375 -0.078125 C 0.863281 -0.00390625 0.773438 0.03125 0.671875 0.03125 Z M 0.671875 0.03125 "/></g></g></g><g fill="#000000" fill-opacity="1"><g transform="translate(66.542743, 34.064285)"><g><path d="M 2.25 -3.140625 C 2.46875 -3.140625 2.660156 -3.09375 2.828125 -3 C 2.992188 -2.914062 3.125 -2.796875 3.21875 -2.640625 C 3.3125 -2.484375 3.359375 -2.300781 3.359375 -2.09375 L 3.359375 0 L 2.8125 0 L 2.8125 -2.234375 C 2.8125 -2.429688 2.738281 -2.597656 2.59375 -2.734375 C 2.457031 -2.867188 2.285156 -2.9375 2.078125 -2.9375 C 1.867188 -2.9375 1.671875 -2.875 1.484375 -2.75 C 1.304688 -2.632812 1.171875 -2.476562 1.078125 -2.28125 L 1.078125 0 L 0.53125 0 L 0.53125 -2.984375 L 1.078125 -3.109375 L 1.078125 -2.5 C 1.179688 -2.695312 1.335938 -2.851562 1.546875 -2.96875 C 1.765625 -3.082031 2 -3.140625 2.25 -3.140625 Z M 2.25 -3.140625 "/></g></g></g><g fill="#000000" fill-opacity="1"><g transform="translate(70.357484, 34.064285)"><g><path d="M 2.109375 -0.078125 C 2.328125 -0.078125 2.53125 -0.117188 2.71875 -0.203125 C 2.90625 -0.296875 3.039062 -0.421875 3.125 -0.578125 L 3.265625 -0.578125 C 3.171875 -0.390625 3.007812 -0.234375 2.78125 -0.109375 C 2.550781 0.00390625 2.289062 0.0625 2 0.0625 C 1.664062 0.0625 1.367188 -0.00390625 1.109375 -0.140625 C 0.859375 -0.285156 0.660156 -0.476562 0.515625 -0.71875 C 0.367188 -0.96875 0.296875 -1.242188 0.296875 -1.546875 C 0.296875 -1.847656 0.367188 -2.117188 0.515625 -2.359375 C 0.660156 -2.609375 0.851562 -2.800781 1.09375 -2.9375 C 1.332031 -3.070312 1.597656 -3.140625 1.890625 -3.140625 C 2.179688 -3.140625 2.4375 -3.070312 2.65625 -2.9375 C 2.875 -2.8125 3.046875 -2.632812 3.171875 -2.40625 C 3.296875 -2.175781 3.359375 -1.921875 3.359375 -1.640625 L 0.875 -1.640625 L 0.875 -1.59375 C 0.875 -1.113281 0.984375 -0.738281 1.203125 -0.46875 C 1.429688 -0.207031 1.734375 -0.078125 2.109375 -0.078125 Z M 1.875 -3.03125 C 1.601562 -3.03125 1.375 -2.910156 1.1875 -2.671875 C 1.007812 -2.441406 0.90625 -2.140625 0.875 -1.765625 L 2.8125 -1.765625 C 2.800781 -2.148438 2.710938 -2.457031 2.546875 -2.6875 C 2.378906 -2.914062 2.15625 -3.03125 1.875 -3.03125 Z M 1.875 -3.03125 "/></g></g></g><g fill="#000000" fill-opacity="1"><g transform="translate(74.017907, 34.064285)"><g><path d="M 2.109375 -0.46875 L 2.25 -0.46875 C 2.25 -0.3125 2.171875 -0.179688 2.015625 -0.078125 C 1.867188 0.015625 1.6875 0.0625 1.46875 0.0625 C 1.3125 0.0625 1.164062 0.03125 1.03125 -0.03125 C 0.894531 -0.101562 0.785156 -0.195312 0.703125 -0.3125 C 0.628906 -0.4375 0.59375 -0.570312 0.59375 -0.71875 L 0.59375 -2.96875 L 0.203125 -2.96875 L 0.203125 -3.09375 L 0.59375 -3.09375 L 0.59375 -3.78125 L 1.140625 -3.9375 L 1.140625 -3.09375 L 2.09375 -3.09375 L 2.09375 -2.96875 L 1.140625 -2.96875 L 1.140625 -0.625 C 1.140625 -0.476562 1.1875 -0.351562 1.28125 -0.25 C 1.375 -0.15625 1.492188 -0.109375 1.640625 -0.109375 C 1.773438 -0.109375 1.882812 -0.140625 1.96875 -0.203125 C 2.0625 -0.273438 2.109375 -0.363281 2.109375 -0.46875 Z M 2.109375 -0.46875 "/></g></g></g></svg>